<?xml version="1.0" encoding="UTF-8"?>
<svg width="256px" height="256px" viewBox="0 0 256 256" version="1.1" xmlns="http://www.w3.org/2000/svg">
    <g stroke="none" stroke-width="1" fill="none" fill-rule="evenodd">
        <g fill="#1A1A1A" fill-rule="nonzero">
            <path d="M128,0 C57.307,0 0,57.307 0,128 C0,198.693 57.307,256 128,256 C198.693,256 256,198.693 256,128 C256,57.307 198.693,0 128,0 Z"></path>
        </g>
        <g fill="#FFFFFF" fill-rule="nonzero">
            <path d="M128,40 C82.667,40 44,78.667 44,124 C44,169.333 82.667,208 128,208 C173.333,208 212,169.333 212,124 C212,78.667 173.333,40 128,40 Z"></path>
        </g>
        <g fill="#1A1A1A" fill-rule="nonzero">
            <path d="M128,72 C100.667,72 78,94.667 78,122 C78,149.333 100.667,172 128,172 C155.333,172 178,149.333 178,122 C178,94.667 155.333,72 128,72 Z"></path>
        </g>
    </g>
</svg> 